<?xml version="1.0" encoding="utf-8"?>
<!-- Generator: Adobe Illustrator 27.0.0, SVG Export Plug-In . SVG Version: 6.00 Build 0)  -->
<svg version="1.1" id="Layer_1" xmlns="http://www.w3.org/2000/svg" xmlns:xlink="http://www.w3.org/1999/xlink" x="0px" y="0px"
	 viewBox="0 0 204 204" style="enable-background:new 0 0 204 204;" xml:space="preserve">
<style type="text/css">
	.st0{fill:#1EC6BA;}
	.st1{fill:#FFFFFF;}
</style>
<path class="st0" d="M165.4,77.11c4.23-1.58,8.99,0.55,10.13,4.92c4.3,16.47,3.18,33.97-3.3,49.86
	c-7.52,18.43-21.71,33.34-39.75,41.77c-18.03,8.43-38.58,9.74-57.54,3.69c-18.96-6.05-34.94-19.03-44.76-36.35
	c-9.81-17.32-12.74-37.69-8.19-57.07c4.55-19.38,16.23-36.33,32.72-47.47s36.58-15.66,56.25-12.65
	c16.97,2.6,32.55,10.63,44.48,22.78c3.16,3.22,2.55,8.4-0.98,11.22c-3.53,2.81-8.64,2.19-11.89-0.95
	c-9.29-8.97-21.18-14.9-34.08-16.88c-15.61-2.39-31.54,1.19-44.62,10.03C50.78,58.85,41.51,72.3,37.9,87.67
	c-3.61,15.37-1.29,31.54,6.5,45.27c7.79,13.74,20.46,24.03,35.51,28.83c15.04,4.8,31.34,3.76,45.64-2.93
	c14.3-6.68,25.56-18.52,31.53-33.13c4.93-12.08,5.95-25.33,3.03-37.91C159.09,83.4,161.17,78.69,165.4,77.11z"/>
<path class="st1" d="M71.14,99.8c0,3.6,2.51,6.48,6.17,6.48c0.47,0,0.81-0.06,1.01-0.17l-4.22,5.97h5.92l4.3-6.84
	c1.09-1.76,1.79-3.77,1.79-5.58c0-4.08-3.15-7.12-7.48-7.12C74.37,92.54,71.14,95.61,71.14,99.8z M76.05,99.6
	c0-1.42,1.14-2.51,2.6-2.51c1.45,0,2.57,1.12,2.57,2.54s-1.12,2.51-2.57,2.51C77.19,102.14,76.05,101.03,76.05,99.6z M104.93,102.51
	c0-5.28-3.02-9.97-8.49-9.97c-5.5,0-8.51,4.69-8.51,9.97s3.02,9.97,8.51,9.97C101.92,112.47,104.93,107.78,104.93,102.51z
	 M99.74,102.51c0,2.6-1.01,5.14-3.29,5.14c-2.32,0-3.32-2.54-3.32-5.14c0-2.6,1-5.14,3.32-5.14
	C98.74,97.37,99.74,99.91,99.74,102.51z M116.45,97.37c0-2.65-2.15-4.72-4.91-4.72c-2.76,0-4.91,2.07-4.91,4.72
	c0,2.65,2.15,4.72,4.91,4.72C114.31,102.09,116.45,100.02,116.45,97.37z M113.16,97.37c0,0.98-0.7,1.65-1.62,1.65
	c-0.92,0-1.62-0.67-1.62-1.65s0.7-1.65,1.62-1.65C112.46,95.72,113.16,96.39,113.16,97.37z M126.92,92.9h-4.27l-14.24,19.18h4.27
	L126.92,92.9z M118.88,107.61c0,2.65,2.15,4.72,4.91,4.72c2.76,0,4.91-2.07,4.91-4.72s-2.15-4.72-4.91-4.72
	C121.03,102.9,118.88,104.96,118.88,107.61z M122.18,107.61c0-0.98,0.7-1.65,1.62-1.65c0.92,0,1.62,0.67,1.62,1.65
	c0,0.98-0.7,1.65-1.62,1.65C122.88,109.26,122.18,108.59,122.18,107.61z"/>
</svg>
