<svg xmlns="http://www.w3.org/2000/svg" xmlns:xlink="http://www.w3.org/1999/xlink" width="500" zoomAndPan="magnify" viewBox="0 0 375 374.999991" height="500" preserveAspectRatio="xMidYMid meet" version="1.0"><defs><g/></defs><g fill="#ffffff" fill-opacity="1"><g transform="translate(34.330545, 200.092318)"><g><path d="M 12.496094 -29.851562 C 12.070312 -29.851562 0.605469 -30.457031 0.605469 -20.53125 C 0.605469 -14.320312 5.105469 -10.746094 11.140625 -10.746094 L 13.285156 -10.746094 C 14.460938 -10.746094 15.425781 -10.035156 15.425781 -8.855469 C 15.425781 -7.710938 14.460938 -6.890625 13.460938 -6.890625 C 12.890625 -6.890625 11.925781 -7.070312 11.570312 -8.5 C 11.460938 -8.785156 11.320312 -8.960938 10.785156 -8.855469 L 1.214844 -7.710938 C 0.679688 -7.605469 0.570312 -7.25 0.855469 -6.714844 C 2.320312 -2.640625 4.925781 1.285156 13.855469 1.285156 C 18.355469 1.285156 24.03125 -1.179688 24.03125 -9.035156 C 24.03125 -18.710938 15.496094 -17.996094 12.496094 -17.996094 C 11.570312 -17.996094 9.785156 -18.210938 9.785156 -19.925781 C 9.785156 -21.316406 10.960938 -21.925781 11.746094 -21.925781 C 12.320312 -21.925781 13.285156 -21.496094 13.640625 -20.53125 C 13.78125 -20.101562 14.105469 -19.925781 14.460938 -19.925781 L 23.210938 -21.140625 C 23.601562 -21.175781 23.886719 -21.566406 23.78125 -22.101562 C 23.386719 -24.03125 21.675781 -29.851562 12.496094 -29.851562 Z M 12.496094 -29.851562 "/></g></g></g><g fill="#ffffff" fill-opacity="1"><g transform="translate(58.96136, 200.092318)"><g><path d="M 21.316406 -28.671875 L 16.816406 -28.671875 C 15.355469 -28.671875 14.175781 -27.496094 14.175781 -26.03125 L 14.175781 -19.675781 C 14.175781 -19.460938 13.996094 -19.246094 13.820312 -19.210938 L 11.355469 -19.210938 C 11.175781 -19.246094 10.996094 -19.460938 10.960938 -19.640625 L 10.960938 -26.03125 C 10.960938 -27.496094 9.785156 -28.671875 8.320312 -28.671875 L 3.820312 -28.671875 C 2.355469 -28.671875 1.179688 -27.496094 1.179688 -26.03125 L 1.179688 -2.605469 C 1.179688 -1.105469 2.355469 0.0703125 3.820312 0.0703125 L 8.320312 0.0703125 C 9.785156 0.0703125 10.960938 -1.105469 10.960938 -2.605469 L 10.960938 -8.925781 C 10.996094 -9.175781 11.105469 -9.320312 11.355469 -9.390625 L 13.820312 -9.390625 C 13.996094 -9.320312 14.175781 -9.175781 14.175781 -8.925781 L 14.175781 -2.605469 C 14.175781 -1.105469 15.355469 0.0703125 16.816406 0.0703125 L 21.316406 0.0703125 C 22.816406 0.0703125 23.996094 -1.105469 23.996094 -2.605469 L 23.996094 -26.03125 C 23.996094 -27.496094 22.816406 -28.671875 21.316406 -28.671875 Z M 21.316406 -28.671875 "/></g></g></g><g fill="#ffffff" fill-opacity="1"><g transform="translate(84.127627, 200.092318)"><g><path d="M 27.246094 -3 L 21.175781 -26.101562 C 21.066406 -26.53125 20.960938 -27.171875 20.460938 -27.746094 C 19.925781 -28.28125 19.246094 -28.421875 18.746094 -28.421875 L 9.390625 -28.421875 C 8.855469 -28.421875 8.355469 -28.246094 8 -27.960938 C 7.640625 -27.710938 7.25 -27.28125 7.105469 -26.636719 L 0.679688 -3.035156 C 0.394531 -1.890625 0.929688 -0.679688 2 -0.214844 C 2.285156 -0.0703125 2.570312 -0.0351562 2.929688 -0.0351562 L 7.785156 -0.0351562 C 9.105469 -0.0351562 9.640625 -0.855469 10.175781 -2.214844 L 11.210938 -5 L 16.675781 -5 L 17.746094 -2.214844 C 18.28125 -0.855469 18.816406 0 20.140625 0 L 24.996094 0 C 25.386719 0 25.78125 -0.105469 26.066406 -0.285156 C 27.03125 -0.785156 27.496094 -1.929688 27.246094 -3 Z M 15.640625 -13.246094 L 12.320312 -13.246094 C 11.960938 -13.246094 11.675781 -13.570312 11.855469 -13.925781 L 12.785156 -16.355469 L 13.496094 -18.210938 C 13.640625 -18.675781 14.28125 -18.675781 14.425781 -18.210938 L 15.175781 -16.355469 L 16.105469 -13.925781 C 16.210938 -13.570312 15.960938 -13.246094 15.640625 -13.246094 Z M 15.640625 -13.246094 "/></g></g></g><g fill="#ffffff" fill-opacity="1"><g transform="translate(112.042558, 200.092318)"><g><path d="M 22.03125 -28.53125 L 17.53125 -28.53125 C 16.140625 -28.53125 14.925781 -27.386719 14.925781 -25.960938 L 14.925781 -17.566406 L 10.746094 -26.851562 C 10.355469 -27.851562 9.390625 -28.53125 8.285156 -28.53125 L 3.785156 -28.53125 C 2.355469 -28.53125 1.179688 -27.386719 1.179688 -25.960938 L 1.179688 -2.105469 C 1.179688 -0.679688 2.355469 0.464844 3.785156 0.464844 L 8.285156 0.464844 C 9.75 0.464844 10.890625 -0.679688 10.890625 -2.105469 L 10.890625 -10.140625 L 15.070312 -1.285156 C 15.496094 -0.285156 16.390625 0.464844 17.53125 0.464844 L 22.03125 0.464844 C 23.496094 0.464844 24.636719 -0.679688 24.636719 -2.105469 L 24.636719 -25.960938 C 24.636719 -27.386719 23.496094 -28.53125 22.03125 -28.53125 Z M 22.03125 -28.53125 "/></g></g></g><g fill="#ffffff" fill-opacity="1"><g transform="translate(137.851372, 200.092318)"><g><path d="M 3.714844 0.0351562 L 8.140625 0.0351562 C 9.640625 0.0351562 10.710938 -1.179688 10.710938 -2.535156 L 10.710938 -25.996094 C 10.710938 -27.496094 9.640625 -28.566406 8.140625 -28.566406 L 3.714844 -28.566406 C 2.320312 -28.566406 1.179688 -27.496094 1.179688 -25.996094 L 1.179688 -2.535156 C 1.179688 -1.179688 2.320312 0.0351562 3.714844 0.0351562 Z M 3.714844 0.0351562 "/></g></g></g><g fill="#ffffff" fill-opacity="1"><g transform="translate(149.738413, 200.092318)"><g><path d="M 28.316406 -25.710938 C 28.53125 -25.886719 28.746094 -26.351562 28.746094 -26.816406 C 28.746094 -27.921875 27.886719 -28.601562 26.960938 -28.601562 L 20.496094 -28.601562 C 20.066406 -28.601562 19.710938 -28.386719 19.390625 -27.921875 L 14.675781 -21.425781 L 10.210938 -27.921875 C 9.855469 -28.496094 9.285156 -28.601562 8.890625 -28.601562 L 2.390625 -28.601562 C 1.464844 -28.601562 0.605469 -27.921875 0.605469 -26.816406 C 0.605469 -26.351562 0.820312 -25.886719 1.070312 -25.710938 L 9.535156 -13.605469 L 9.535156 -2.035156 C 9.535156 -0.855469 10.675781 0 11.785156 0 L 17.566406 0 C 18.675781 0 19.851562 -0.855469 19.851562 -2.035156 L 19.851562 -13.605469 Z M 28.316406 -25.710938 "/></g></g></g><g fill="#ffffff" fill-opacity="1"><g transform="translate(179.081209, 200.092318)"><g><path d="M 27.246094 -3 L 21.175781 -26.101562 C 21.066406 -26.53125 20.960938 -27.171875 20.460938 -27.746094 C 19.925781 -28.28125 19.246094 -28.421875 18.746094 -28.421875 L 9.390625 -28.421875 C 8.855469 -28.421875 8.355469 -28.246094 8 -27.960938 C 7.640625 -27.710938 7.25 -27.28125 7.105469 -26.636719 L 0.679688 -3.035156 C 0.394531 -1.890625 0.929688 -0.679688 2 -0.214844 C 2.285156 -0.0703125 2.570312 -0.0351562 2.929688 -0.0351562 L 7.785156 -0.0351562 C 9.105469 -0.0351562 9.640625 -0.855469 10.175781 -2.214844 L 11.210938 -5 L 16.675781 -5 L 17.746094 -2.214844 C 18.28125 -0.855469 18.816406 0 20.140625 0 L 24.996094 0 C 25.386719 0 25.78125 -0.105469 26.066406 -0.285156 C 27.03125 -0.785156 27.496094 -1.929688 27.246094 -3 Z M 15.640625 -13.246094 L 12.320312 -13.246094 C 11.960938 -13.246094 11.675781 -13.570312 11.855469 -13.925781 L 12.785156 -16.355469 L 13.496094 -18.210938 C 13.640625 -18.675781 14.28125 -18.675781 14.425781 -18.210938 L 15.175781 -16.355469 L 16.105469 -13.925781 C 16.210938 -13.570312 15.960938 -13.246094 15.640625 -13.246094 Z M 15.640625 -13.246094 "/></g></g></g><g fill="#ffffff" fill-opacity="1"><g transform="translate(206.99614, 200.092318)"><g/></g></g><g fill="#ffffff" fill-opacity="1"><g transform="translate(219.133061, 200.092318)"><g><path d="M 15.140625 -11.320312 C 14.820312 -11.320312 14.570312 -11.070312 14.570312 -10.746094 C 14.570312 -9.535156 13.460938 -8.460938 12.210938 -8.460938 C 10.890625 -8.460938 9.855469 -9.535156 9.855469 -10.746094 L 9.855469 -17.816406 C 9.855469 -19.53125 11.675781 -20.890625 13.605469 -19.78125 C 14.140625 -19.460938 14.570312 -18.675781 14.570312 -18.03125 L 14.570312 -17.855469 C 14.570312 -17.566406 14.820312 -17.28125 15.140625 -17.28125 L 23.28125 -17.28125 C 23.53125 -17.28125 23.78125 -17.53125 23.78125 -17.816406 L 23.78125 -18.460938 C 23.78125 -24.316406 18.175781 -29.03125 12.210938 -29.03125 C 6.355469 -29.03125 0.605469 -24.316406 0.605469 -18.460938 L 0.605469 -10.390625 C 0.605469 -4.320312 6.355469 0.429688 12.210938 0.429688 C 18.175781 0.429688 23.78125 -4.320312 23.78125 -10.390625 L 23.78125 -10.820312 C 23.78125 -11.070312 23.53125 -11.320312 23.28125 -11.320312 Z M 15.140625 -11.320312 "/></g></g></g><g fill="#ffffff" fill-opacity="1"><g transform="translate(243.513995, 200.092318)"><g><path d="M 12.246094 -28.996094 C 6.390625 -28.996094 0.605469 -24.28125 0.605469 -18.390625 L 0.605469 -10.25 C 0.605469 -4.140625 6.390625 0.605469 12.246094 0.605469 C 18.246094 0.605469 23.886719 -4.140625 23.886719 -10.25 L 23.886719 -18.390625 C 23.886719 -24.28125 18.246094 -28.996094 12.246094 -28.996094 Z M 14.640625 -10.605469 C 14.640625 -9.390625 13.53125 -8.320312 12.246094 -8.320312 C 10.925781 -8.320312 9.890625 -9.390625 9.890625 -10.605469 L 9.890625 -17.746094 C 9.890625 -19.03125 10.925781 -20.101562 12.246094 -20.101562 C 13.53125 -20.101562 14.640625 -19.03125 14.640625 -17.746094 Z M 14.640625 -10.605469 "/></g></g></g><g fill="#ffffff" fill-opacity="1"><g transform="translate(268.002037, 200.092318)"><g><path d="M 13.355469 -28.53125 L 3.75 -28.53125 C 2.25 -28.53125 1.179688 -27.28125 1.179688 -25.960938 L 1.179688 -2.714844 C 1.179688 -1.429688 2.25 -0.105469 3.75 -0.105469 L 13.355469 -0.105469 C 18.960938 -0.105469 23.246094 -4.640625 23.246094 -10.035156 L 23.246094 -18.640625 C 23.246094 -24.03125 18.960938 -28.53125 13.355469 -28.53125 Z M 14.53125 -13.460938 C 14.53125 -11.960938 13.425781 -10.925781 11.960938 -10.925781 L 10.25 -10.925781 C 10 -10.925781 9.75 -11.105469 9.75 -11.535156 L 9.75 -17.105469 C 9.75 -17.566406 10 -17.78125 10.25 -17.78125 L 11.960938 -17.78125 C 13.425781 -17.78125 14.53125 -16.710938 14.53125 -15.175781 Z M 14.53125 -13.460938 "/></g></g></g><g fill="#ffffff" fill-opacity="1"><g transform="translate(292.133104, 200.092318)"><g><path d="M 11.140625 -20.816406 L 18.390625 -20.816406 C 19.425781 -20.816406 20.28125 -21.675781 20.28125 -22.675781 L 20.28125 -26.671875 C 20.28125 -27.710938 19.425781 -28.53125 18.390625 -28.53125 L 3.785156 -28.53125 C 2.320312 -28.53125 1.179688 -27.386719 1.179688 -26.566406 L 1.179688 -3.320312 C 1.179688 -1.214844 2.320312 -0.0703125 3.785156 -0.0703125 L 18.390625 -0.0703125 C 19.425781 -0.0703125 20.28125 -0.894531 20.28125 -1.929688 L 20.28125 -5.925781 C 20.28125 -6.964844 19.425781 -7.855469 18.390625 -7.855469 L 11.140625 -7.855469 C 10.996094 -7.855469 10.890625 -7.960938 10.890625 -8.105469 L 10.890625 -10.390625 C 10.890625 -10.535156 10.996094 -10.640625 11.140625 -10.640625 L 16.390625 -10.640625 C 17.316406 -10.640625 18.105469 -11.390625 18.105469 -12.355469 L 18.105469 -16.246094 C 18.105469 -17.175781 17.316406 -17.960938 16.390625 -17.960938 L 11.140625 -17.960938 C 10.996094 -17.960938 10.890625 -18.066406 10.890625 -18.175781 L 10.890625 -20.53125 C 10.890625 -20.640625 10.996094 -20.816406 11.140625 -20.816406 Z M 11.140625 -20.816406 "/></g></g></g><g fill="#ffffff" fill-opacity="1"><g transform="translate(313.586922, 200.092318)"><g><path d="M 12.496094 -29.851562 C 12.070312 -29.851562 0.605469 -30.457031 0.605469 -20.53125 C 0.605469 -14.320312 5.105469 -10.746094 11.140625 -10.746094 L 13.285156 -10.746094 C 14.460938 -10.746094 15.425781 -10.035156 15.425781 -8.855469 C 15.425781 -7.710938 14.460938 -6.890625 13.460938 -6.890625 C 12.890625 -6.890625 11.925781 -7.070312 11.570312 -8.5 C 11.460938 -8.785156 11.320312 -8.960938 10.785156 -8.855469 L 1.214844 -7.710938 C 0.679688 -7.605469 0.570312 -7.25 0.855469 -6.714844 C 2.320312 -2.640625 4.925781 1.285156 13.855469 1.285156 C 18.355469 1.285156 24.03125 -1.179688 24.03125 -9.035156 C 24.03125 -18.710938 15.496094 -17.996094 12.496094 -17.996094 C 11.570312 -17.996094 9.785156 -18.210938 9.785156 -19.925781 C 9.785156 -21.316406 10.960938 -21.925781 11.746094 -21.925781 C 12.320312 -21.925781 13.285156 -21.496094 13.640625 -20.53125 C 13.78125 -20.101562 14.105469 -19.925781 14.460938 -19.925781 L 23.210938 -21.140625 C 23.601562 -21.175781 23.886719 -21.566406 23.78125 -22.101562 C 23.386719 -24.03125 21.675781 -29.851562 12.496094 -29.851562 Z M 12.496094 -29.851562 "/></g></g></g><path stroke-linecap="butt" transform="matrix(0.866691, 0, 0, 0.866691, 14.161881, 171.466206)" fill="none" stroke-linejoin="miter" d="M 39.110514 -2.439906 C 38.610227 -2.439906 25.39094 -3.143011 25.39094 8.314005 C 25.39094 15.484781 30.583105 19.599752 37.542048 19.599752 L 40.016439 19.599752 C 41.373072 19.599752 42.481816 20.424549 42.481816 21.781182 C 42.481816 23.097252 41.373072 24.04374 40.219258 24.04374 C 39.56573 24.04374 38.447972 23.840921 38.03332 22.191327 C 37.916136 21.86231 37.744867 21.659491 37.131903 21.781182 L 26.085032 23.097252 C 25.472068 23.227957 25.350376 23.642609 25.674887 24.255573 C 27.365044 28.951958 30.371272 33.477074 40.669966 33.477074 C 45.862131 33.477074 52.419943 30.642116 52.419943 21.578363 C 52.419943 10.414308 42.571957 11.239105 39.110514 11.239105 C 38.03332 11.239105 35.973581 10.986708 35.973581 9.008096 C 35.973581 7.40808 37.330215 6.700468 38.245153 6.700468 C 38.898681 6.700468 40.016439 7.196247 40.431091 8.314005 C 40.588839 8.805278 40.962927 9.008096 41.373072 9.008096 L 51.464441 7.606392 C 51.915149 7.565829 52.248674 7.11512 52.126983 6.502156 C 51.676274 4.266641 49.693155 -2.439906 39.110514 -2.439906 Z M 77.700197 -1.083272 L 72.508032 -1.083272 C 70.817874 -1.083272 69.461241 0.273361 69.461241 1.963519 L 69.461241 9.29655 C 69.461241 9.548947 69.262929 9.79233 69.051096 9.832893 L 66.211631 9.832893 C 65.999798 9.79233 65.801486 9.548947 65.751908 9.337114 L 65.751908 1.963519 C 65.751908 0.273361 64.390767 -1.083272 62.70061 -1.083272 L 57.512952 -1.083272 C 55.822794 -1.083272 54.466161 0.273361 54.466161 1.963519 L 54.466161 28.992522 C 54.466161 30.723244 55.822794 32.079877 57.512952 32.079877 L 62.70061 32.079877 C 64.390767 32.079877 65.751908 30.723244 65.751908 28.992522 L 65.751908 21.700055 C 65.801486 21.407094 65.923177 21.249346 66.211631 21.168218 L 69.051096 21.168218 C 69.262929 21.249346 69.461241 21.407094 69.461241 21.700055 L 69.461241 28.992522 C 69.461241 30.723244 70.817874 32.079877 72.508032 32.079877 L 77.700197 32.079877 C 79.430918 32.079877 80.796566 30.723244 80.796566 28.992522 L 80.796566 1.963519 C 80.796566 0.273361 79.430918 -1.083272 77.700197 -1.083272 Z M 113.576612 28.541813 L 106.577106 1.882391 C 106.455414 1.391119 106.324709 0.647449 105.752309 -0.0150925 C 105.139345 -0.628056 104.355111 -0.790312 103.76919 -0.790312 L 92.979223 -0.790312 C 92.361752 -0.790312 91.780338 -0.592 91.379207 -0.258475 C 90.964555 0.0344854 90.504832 0.525758 90.342577 1.260413 L 82.928418 28.50125 C 82.594893 29.817319 83.212364 31.214516 84.447306 31.746352 C 84.780831 31.917622 85.109848 31.958186 85.5245 31.958186 L 91.12681 31.958186 C 92.645698 31.958186 93.267676 31.016204 93.88064 29.443231 L 95.079526 26.234185 L 101.384941 26.234185 L 102.62439 29.443231 C 103.237354 31.016204 103.859332 31.998749 105.37822 31.998749 L 110.98053 31.998749 C 111.435746 31.998749 111.886455 31.877058 112.219979 31.669732 C 113.337737 31.092825 113.869573 29.776755 113.576612 28.541813 Z M 100.190563 16.710709 L 96.355031 16.710709 C 95.944886 16.710709 95.611362 16.350142 95.823195 15.93549 L 96.891375 13.132081 L 97.716172 10.986708 C 97.887441 10.454872 98.622096 10.454872 98.788859 10.986708 L 99.654219 13.132081 L 100.722399 15.93549 C 100.853105 16.350142 100.560144 16.710709 100.190563 16.710709 Z M 139.771804 -0.921017 L 134.57964 -0.921017 C 132.970609 -0.921017 131.573412 0.395052 131.573412 2.044646 L 131.573412 11.730377 L 126.755336 1.021538 C 126.30012 -0.136784 125.18687 -0.921017 123.906857 -0.921017 L 118.719199 -0.921017 C 117.069605 -0.921017 115.708465 0.395052 115.708465 2.044646 L 115.708465 29.564922 C 115.708465 31.214516 117.069605 32.535093 118.719199 32.535093 L 123.906857 32.535093 C 125.597014 32.535093 126.917591 31.214516 126.917591 29.564922 L 126.917591 20.302858 L 131.744682 30.520425 C 132.235954 31.669732 133.26357 32.535093 134.57964 32.535093 L 139.771804 32.535093 C 141.461962 32.535093 142.778032 31.214516 142.778032 29.564922 L 142.778032 2.044646 C 142.778032 0.395052 141.461962 -0.921017 139.771804 -0.921017 Z M 148.416398 32.039313 L 153.527435 32.039313 C 155.258157 32.039313 156.493099 30.642116 156.493099 29.07365 L 156.493099 2.004083 C 156.493099 0.273361 155.258157 -0.961581 153.527435 -0.961581 L 148.416398 -0.961581 C 146.807368 -0.961581 145.491298 0.273361 145.491298 2.004083 L 145.491298 29.07365 C 145.491298 30.642116 146.807368 32.039313 148.416398 32.039313 Z M 190.517102 2.337607 C 190.769498 2.125774 191.008374 1.593938 191.008374 1.057594 C 191.008374 -0.217911 190.025829 -1.002145 188.948635 -1.002145 L 181.493913 -1.002145 C 181.00264 -1.002145 180.587988 -0.749748 180.218407 -0.217911 L 174.773845 7.277375 L 169.626751 -0.217911 C 169.212099 -0.880453 168.558572 -1.002145 168.107863 -1.002145 L 160.603562 -1.002145 C 159.535383 -1.002145 158.552838 -0.217911 158.552838 1.057594 C 158.552838 1.593938 158.791713 2.125774 159.084674 2.337607 L 168.851532 16.300564 L 168.851532 29.655064 C 168.851532 31.016204 170.167602 31.998749 171.447615 31.998749 L 178.113597 31.998749 C 179.39361 31.998749 180.750243 31.016204 180.750243 29.655064 L 180.750243 16.300564 Z M 223.134893 28.541813 L 216.135386 1.882391 C 216.013695 1.391119 215.882989 0.647449 215.310589 -0.0150925 C 214.697625 -0.628056 213.913392 -0.790312 213.327471 -0.790312 L 202.537504 -0.790312 C 201.92454 -0.790312 201.338618 -0.592 200.937488 -0.258475 C 200.522836 0.0344854 200.063113 0.525758 199.900858 1.260413 L 192.486699 28.50125 C 192.157681 29.817319 192.770645 31.214516 194.005587 31.746352 C 194.339112 31.917622 194.668129 31.958186 195.082781 31.958186 L 200.685091 31.958186 C 202.203979 31.958186 202.825957 31.016204 203.443428 29.443231 L 204.637806 26.234185 L 210.943222 26.234185 L 212.182671 29.443231 C 212.795635 31.016204 213.417613 31.998749 214.936501 31.998749 L 220.538811 31.998749 C 220.994027 31.998749 221.444735 31.877058 221.77826 31.669732 C 222.896017 31.092825 223.427854 29.776755 223.134893 28.541813 Z M 209.748844 16.710709 L 205.917819 16.710709 C 205.503167 16.710709 205.169643 16.350142 205.381476 15.93549 L 206.449656 13.132081 L 207.274453 10.986708 C 207.445722 10.454872 208.180377 10.454872 208.351646 10.986708 L 209.217007 13.132081 L 210.28068 15.93549 C 210.411385 16.350142 210.118425 16.710709 209.748844 16.710709 Z M 255.387611 18.941717 C 255.013522 18.941717 254.725069 19.225664 254.725069 19.599752 C 254.725069 20.996949 253.445056 22.231891 252.007295 22.231891 C 250.479392 22.231891 249.280507 20.996949 249.280507 19.599752 L 249.280507 11.441924 C 249.280507 9.458805 251.385317 7.899353 253.616325 9.174859 C 254.229289 9.548947 254.725069 10.454872 254.725069 11.198541 L 254.725069 11.40136 C 254.725069 11.730377 255.013522 12.063902 255.387611 12.063902 L 264.780381 12.063902 C 265.064327 12.063902 265.357288 11.770941 265.357288 11.441924 L 265.357288 10.693747 C 265.357288 3.946637 258.889618 -1.493417 252.007295 -1.493417 C 245.246664 -1.493417 238.621245 3.946637 238.621245 10.693747 L 238.621245 20.009897 C 238.621245 27.009404 245.246664 32.494529 252.007295 32.494529 C 258.889618 32.494529 265.357288 27.009404 265.357288 20.009897 L 265.357288 19.518624 C 265.357288 19.225664 265.064327 18.941717 264.780381 18.941717 Z M 280.176591 -1.452853 C 273.420467 -1.452853 266.749978 3.987201 266.749978 10.788396 L 266.749978 20.172152 C 266.749978 27.221237 273.420467 32.701855 280.176591 32.701855 C 287.099478 32.701855 293.607712 27.221237 293.607712 20.172152 L 293.607712 10.788396 C 293.607712 3.987201 287.099478 -1.452853 280.176591 -1.452853 Z M 282.934929 19.7575 C 282.934929 21.168218 281.659423 22.40316 280.176591 22.40316 C 278.648689 22.40316 277.463325 21.168218 277.463325 19.7575 L 277.463325 11.518544 C 277.463325 10.040219 278.648689 8.805278 280.176591 8.805278 C 281.659423 8.805278 282.934929 10.040219 282.934929 11.518544 Z M 309.711535 -0.921017 L 298.6241 -0.921017 C 296.897886 -0.921017 295.658437 0.525758 295.658437 2.044646 L 295.658437 28.870831 C 295.658437 30.349155 296.897886 31.877058 298.6241 31.877058 L 309.711535 31.877058 C 316.179206 31.877058 321.118973 26.648837 321.118973 20.424549 L 321.118973 10.495435 C 321.118973 4.266641 316.179206 -0.921017 309.711535 -0.921017 Z M 311.068169 16.467326 C 311.068169 18.198048 309.792663 19.396933 308.102505 19.396933 L 306.128401 19.396933 C 305.839947 19.396933 305.546986 19.1851 305.546986 18.693827 L 305.546986 12.266721 C 305.546986 11.730377 305.839947 11.482487 306.128401 11.482487 L 308.102505 11.482487 C 309.792663 11.482487 311.068169 12.717429 311.068169 14.488715 Z M 335.000803 7.980481 L 343.356943 7.980481 C 344.555828 7.980481 345.551894 6.993428 345.551894 5.839614 L 345.551894 1.219849 C 345.551894 0.0344854 344.555828 -0.921017 343.356943 -0.921017 L 326.50945 -0.921017 C 324.819292 -0.921017 323.503223 0.395052 323.503223 1.350555 L 323.503223 28.167725 C 323.503223 30.601552 324.819292 31.917622 326.50945 31.917622 L 343.356943 31.917622 C 344.555828 31.917622 345.551894 30.975641 345.551894 29.776755 L 345.551894 25.161498 C 345.551894 23.962613 344.555828 22.934997 343.356943 22.934997 L 335.000803 22.934997 C 334.838548 22.934997 334.707842 22.817812 334.707842 22.646543 L 334.707842 20.009897 C 334.707842 19.847642 334.838548 19.716936 335.000803 19.716936 L 341.053821 19.716936 C 342.131015 19.716936 343.03694 18.851575 343.03694 17.747339 L 343.03694 13.249266 C 343.03694 12.185593 342.131015 11.279669 341.053821 11.279669 L 335.000803 11.279669 C 334.838548 11.279669 334.707842 11.148963 334.707842 11.027272 L 334.707842 8.314005 C 334.707842 8.192314 334.838548 7.980481 335.000803 7.980481 Z M 361.322193 -2.439906 C 360.817399 -2.439906 347.602619 -3.143011 347.602619 8.314005 C 347.602619 15.484781 352.790277 19.599752 359.753727 19.599752 L 362.228118 19.599752 C 363.584751 19.599752 364.688987 20.424549 364.688987 21.781182 C 364.688987 23.097252 363.584751 24.04374 362.42643 24.04374 C 361.772902 24.04374 360.659651 23.840921 360.244999 22.191327 C 360.123308 21.86231 359.952039 21.659491 359.339075 21.781182 L 348.296711 23.097252 C 347.683747 23.227957 347.562055 23.642609 347.882058 24.255573 C 349.572216 28.951958 352.578444 33.477074 362.881645 33.477074 C 368.069303 33.477074 374.627115 30.642116 374.627115 21.578363 C 374.627115 10.414308 364.783636 11.239105 361.322193 11.239105 C 360.244999 11.239105 358.18526 10.986708 358.18526 9.008096 C 358.18526 7.40808 359.541894 6.700468 360.456832 6.700468 C 361.11036 6.700468 362.228118 7.196247 362.638263 8.314005 C 362.800518 8.805278 363.170099 9.008096 363.584751 9.008096 L 373.671613 7.606392 C 374.126828 7.565829 374.455846 7.11512 374.338662 6.502156 C 373.883446 4.266641 371.904834 -2.439906 361.322193 -2.439906 Z M 361.322193 -2.439906 " stroke="#8c52ff" stroke-width="0.669508" stroke-opacity="1" stroke-miterlimit="4"/></svg>