<svg xmlns="http://www.w3.org/2000/svg" xmlns:xlink="http://www.w3.org/1999/xlink" width="500" zoomAndPan="magnify" viewBox="0 0 375 374.999991" height="500" preserveAspectRatio="xMidYMid meet" version="1.0"><defs><clipPath id="1480a12c10"><path d="M 183 10.601562 L 312.324219 10.601562 L 312.324219 156 L 183 156 Z M 183 10.601562 " clip-rule="nonzero"/></clipPath><clipPath id="a65f3fe65f"><path d="M 62.574219 10.601562 L 248 10.601562 L 248 189 L 62.574219 189 Z M 62.574219 10.601562 " clip-rule="nonzero"/></clipPath><clipPath id="3a6cc9097a"><path d="M 179 135 L 312.324219 135 L 312.324219 346.457031 L 179 346.457031 Z M 179 135 " clip-rule="nonzero"/></clipPath><clipPath id="8e96c42a11"><path d="M 62.574219 176 L 312.324219 176 L 312.324219 346.457031 L 62.574219 346.457031 Z M 62.574219 176 " clip-rule="nonzero"/></clipPath></defs><path fill="#0092a2" d="M 166.964844 14.390625 C 157.84375 16.585938 130.21875 21.195312 109.488281 32.4375 C 88.753906 43.679688 74.917969 61.554688 68.746094 81.34375 C 62.570312 101.132812 64.0625 122.835938 70.980469 139.753906 C 77.898438 156.667969 90.246094 168.796875 110.042969 181.03125 C 129.839844 193.269531 157.085938 205.609375 181.355469 216.25 C 205.625 226.886719 226.910156 235.824219 240.960938 247.847656 C 255.011719 259.871094 261.820312 274.976562 270.335938 282.320312 C 278.851562 289.660156 289.070312 289.234375 296.628906 282.742188 C 304.183594 276.253906 309.082031 263.699219 309.292969 250.71875 C 309.507812 237.738281 305.035156 224.335938 294.390625 211.035156 C 283.746094 197.738281 266.929688 184.542969 244.6875 172.523438 C 222.441406 160.5 194.765625 149.648438 173.679688 139.105469 C 152.59375 128.566406 138.09375 118.335938 128.996094 105.515625 C 119.894531 92.695312 116.191406 77.285156 117.109375 64.632812 C 118.023438 51.980469 123.558594 42.085938 131.03125 33.882812 C 138.5 25.675781 147.902344 19.160156 157.296875 15.789062 C 166.695312 12.421875 176.082031 12.199219 166.964844 14.390625 " fill-opacity="1" fill-rule="evenodd"/><path fill="#000000" d="M 294.074219 25.808594 C 295.882812 34.53125 296.945312 63.683594 297.054688 82.40625 C 297.15625 101.132812 296.308594 109.429688 294.710938 111.34375 C 293.113281 113.261719 290.773438 108.792969 285.238281 96.984375 C 279.703125 85.175781 270.976562 66.023438 261.289062 52.722656 C 251.605469 39.425781 240.960938 31.976562 234.253906 27.722656 C 227.546875 23.46875 224.78125 22.402344 229.253906 24.316406 C 233.722656 26.234375 245.429688 31.128906 256.285156 34.316406 C 267.144531 37.511719 277.148438 39 283.429688 33.894531 C 289.707031 28.785156 292.261719 17.082031 294.074219 25.808594 " fill-opacity="1" fill-rule="evenodd"/><g clip-path="url(#1480a12c10)"><path stroke-linecap="butt" transform="matrix(0.0201662, 0, 0, -0.0201576, 64.729123, 345.656697)" fill="none" stroke-linejoin="miter" d="M 11372.576927 15867.209821 C 11462.261522 15434.485956 11514.9488 13988.261951 11520.37249 13059.446239 C 11525.408774 12130.436741 11483.375174 11718.835536 11404.150554 11623.880456 C 11324.925933 11528.73159 11208.8977 11750.422634 10934.420226 12336.237343 C 10659.942752 12922.052051 10227.20974 13872.18421 9746.825735 14531.831338 C 9266.635433 15191.672252 8738.794137 15561.028135 8406.205694 15772.254741 C 8073.810955 15983.287562 7936.66907 16035.997321 8158.265563 15941.042241 C 8379.862055 15846.087161 8960.39063 15603.273456 9498.885603 15444.950394 C 10037.186874 15286.627332 10533.260841 15212.794912 10844.735631 15466.073054 C 11156.016719 15719.351197 11282.69863 16299.933686 11372.576927 15867.209821 Z M 11372.576927 15867.209821 " stroke="#ffffff" stroke-width="67.324997" stroke-opacity="1" stroke-miterlimit="22.926001"/></g><g clip-path="url(#a65f3fe65f)"><path stroke-linecap="butt" transform="matrix(0.0205318, 0, 0, -0.020523, 64.729123, 345.656697)" fill="none" stroke-linejoin="miter" d="M 6716.981053 16154.713682 C 6540.8059 16206.675165 5794.249419 16299.939366 5037.419226 16268.914744 C 4280.589032 16237.890122 3513.294872 16082.196007 2875.563648 15719.417299 C 2238.022678 15356.448257 1730.044645 14786.394621 1424.116302 14039.710009 C 1118.378212 13293.215733 1014.689812 12370.661485 1258.214861 11598.281634 C 1501.930165 10825.711449 2092.858918 10203.69633 2647.639422 9944.459918 C 3202.229672 9685.223507 3720.671672 9788.956139 3995.398369 9913.435297 C 4270.125066 10037.724119 4301.326712 10182.949803 3990.261512 10488.818315 C 3679.196312 10794.686827 3026.054519 11261.198166 2663.049992 11867.796141 C 2300.235718 12474.203782 2227.748965 13220.698058 2326.110255 13827.296034 C 2424.661799 14433.894009 2694.251639 14900.215013 3134.879775 15273.652487 C 3575.507912 15646.899625 4187.174345 15926.882562 4710.753202 16046.032337 C 5234.332059 16165.182112 5669.823339 16123.68906 6084.576939 16108.271916 C 6499.140286 16092.664438 6893.156206 16102.942533 6716.981053 16154.713682 Z M 6716.981053 16154.713682 " stroke="#ffffff" stroke-width="66.125999" stroke-opacity="1" stroke-miterlimit="22.926001"/></g><g clip-path="url(#3a6cc9097a)"><path stroke-linecap="butt" transform="matrix(0.0159656, 0, 0, -0.0159588, 64.729123, 345.656697)" fill="none" stroke-linejoin="miter" d="M 10291.493533 9555.641027 C 10984.878548 8895.49378 12758.221733 7748.986658 13644.893326 6555.483515 C 14531.564918 5362.225142 14531.564918 4122.215518 14238.20972 3182.295077 C 13944.854521 2242.129864 13358.144124 1602.298606 13391.418775 1528.867321 C 13424.693427 1455.436037 14078.197793 1948.894268 14584.902227 2722.125694 C 15091.606661 3495.60189 15451.511162 4548.851281 15458.117159 5522.305342 C 15464.723156 6495.514632 15118.275315 7388.928593 14547.223578 8152.613952 C 13976.17184 8916.054539 13181.005539 9550.011295 12447.739876 9929.895807 C 11714.474213 10310.02509 11043.109188 10436.082128 10513.895431 10412.584117 C 9984.926341 10388.841335 9598.108519 10215.543504 10291.493533 9555.641027 Z M 10291.493533 9555.641027 " stroke="#ffffff" stroke-width="85.039001" stroke-opacity="1" stroke-miterlimit="22.926001"/></g><path fill="#000000" d="M 263.039062 277.785156 C 261.238281 288.863281 258.867188 302.878906 252.894531 314.113281 C 246.921875 325.34375 237.339844 333.792969 224.675781 338.015625 C 212.007812 342.238281 196.257812 342.238281 180.714844 339.71875 C 165.175781 337.195312 149.851562 332.152344 135.585938 324.417969 C 121.324219 316.683594 108.125 306.257812 97.800781 293.171875 C 87.476562 280.085938 80.027344 264.339844 75.449219 250.613281 C 70.875 236.890625 69.171875 225.1875 68 221.355469 C 66.828125 217.527344 66.191406 221.566406 66.722656 238.058594 C 67.253906 254.550781 68.957031 283.488281 68.957031 302.925781 C 68.957031 322.363281 67.253906 332.300781 68.320312 331.238281 C 69.382812 330.175781 73.214844 318.109375 79.921875 313.566406 C 86.625 309.023438 96.207031 312 110.148438 318.035156 C 124.09375 324.066406 142.398438 333.152344 160.917969 338.578125 C 179.441406 344.003906 198.171875 345.769531 217.332031 344.417969 C 236.492188 343.070312 256.074219 338.597656 270.757812 328.683594 C 285.4375 318.769531 295.222656 303.40625 299.054688 288.9375 C 302.886719 274.464844 300.765625 260.890625 294.484375 254.617188 C 288.199219 248.347656 277.75 249.375 271.910156 253.964844 C 266.066406 258.554688 264.839844 266.703125 263.039062 277.785156 " fill-opacity="1" fill-rule="evenodd"/><g clip-path="url(#8e96c42a11)"><path stroke-linecap="butt" transform="matrix(0.0159656, 0, 0, -0.0159588, 64.729123, 345.656697)" fill="none" stroke-linejoin="miter" d="M 12421.071221 4252.923204 C 12308.27994 3558.752795 12159.767341 2680.514633 11785.67218 1976.553386 C 11411.577019 1272.836909 10811.409961 743.397348 10018.200992 478.799953 C 9224.747357 214.202558 8238.25181 214.202558 7264.723591 372.07982 C 6291.440038 530.201852 5331.613146 846.201147 4438.09089 1330.847624 C 3544.8133 1815.494102 2718.085013 2468.787762 2071.431311 3288.770439 C 1424.777608 4108.753116 958.198489 5095.424808 671.449287 5955.54992 C 384.944752 6815.430262 278.270135 7548.764023 204.870168 7788.884323 C 131.470202 8028.759852 91.589554 7775.666692 124.864205 6742.243748 C 158.138856 5708.820805 264.813474 3895.55762 264.813474 2677.577381 C 264.813474 1459.597143 158.138856 836.89985 224.932826 903.477548 C 291.482129 970.055246 531.500018 1726.152705 951.592492 2010.821318 C 1371.440299 2295.489931 1971.607356 2108.974469 2844.822289 1730.803354 C 3718.281887 1352.877009 4864.78936 783.539784 6024.753494 443.552937 C 7184.962294 103.56609 8358.138422 -7.070379 9558.22787 77.620369 C 10758.317319 162.066346 11984.830755 442.329082 12904.532333 1063.557749 C 13823.989243 1684.786415 14436.878962 2647.470555 14676.896851 3554.102147 C 14916.914741 4460.97851 14784.060802 5311.557556 14390.636983 5704.659698 C 13996.968497 6097.51707 13342.485465 6033.142311 12976.708966 5745.536447 C 12610.687801 5457.930583 12533.862503 4947.338385 12421.071221 4252.923204 Z M 12421.071221 4252.923204 " stroke="#ffffff" stroke-width="85.039001" stroke-opacity="1" stroke-miterlimit="22.926001"/></g><path fill="#0093cd" d="M 72.847656 225.042969 C 76.089844 230.398438 82.902344 246.996094 92.90625 262.953125 C 102.914062 278.914062 116.109375 294.234375 122.453125 303.605469 C 128.792969 312.976562 128.277344 316.402344 122.632812 315.65625 C 116.992188 314.914062 106.226562 310 97.972656 302.96875 C 89.714844 295.933594 83.96875 286.785156 79.765625 274.515625 C 75.566406 262.242188 72.917969 246.851562 71.425781 236.210938 C 69.9375 225.570312 69.609375 219.6875 72.847656 225.042969 " fill-opacity="1" fill-rule="evenodd"/></svg>