<?xml version="1.0" encoding="utf-8"?>
<!-- Generator: Adobe Illustrator 27.0.0, SVG Export Plug-In . SVG Version: 6.00 Build 0)  -->
<svg version="1.1" id="Layer_1" xmlns="http://www.w3.org/2000/svg" xmlns:xlink="http://www.w3.org/1999/xlink" x="0px" y="0px"
	 viewBox="0 0 204 204" style="enable-background:new 0 0 204 204;" xml:space="preserve">
<style type="text/css">
	.st0{fill:#1EC6BA;}
	.st1{fill:#FFFFFF;}
</style>
<path class="st0" d="M171.93,75.72c4.46-1.67,9.49,0.58,10.69,5.2c4.54,17.39,3.36,35.86-3.49,52.64
	c-7.94,19.45-22.92,35.2-41.96,44.09c-19.04,8.9-40.73,10.29-60.74,3.9c-20.02-6.39-36.89-20.09-47.25-38.37
	c-10.36-18.28-13.45-39.79-8.65-60.25c4.8-20.46,17.13-38.35,34.54-50.11s38.61-16.53,59.38-13.35
	c17.91,2.74,34.37,11.22,46.95,24.04c3.34,3.4,2.69,8.87-1.03,11.84c-3.73,2.97-9.12,2.31-12.55-1
	c-9.81-9.47-22.36-15.73-35.98-17.82C95.37,34,78.55,37.78,64.74,47.12c-13.81,9.33-23.6,23.53-27.4,39.75
	c-3.81,16.23-1.36,33.29,6.86,47.79c8.22,14.5,21.6,25.37,37.48,30.44c15.88,5.07,33.08,3.96,48.18-3.09
	c15.1-7.06,26.99-19.55,33.28-34.98c5.21-12.75,6.28-26.74,3.19-40.02C165.26,82.37,167.46,77.4,171.93,75.72z"/>
<path class="st1" d="M80.26,92.01c-3.77,0-6.96,2.33-6.96,5.86c0,1.68,0.91,3.01,2.3,3.83c-1.56,0.8-3.18,2.48-3.18,4.83
	c0,4.1,3.74,6.51,7.84,6.51c4.1,0,7.84-2.42,7.84-6.51c0-2.36-1.62-4.04-3.18-4.83c1.39-0.83,2.3-2.15,2.3-3.83
	C87.21,94.34,84.03,92.01,80.26,92.01z M82.79,106.25c0,1.39-1.03,2.39-2.53,2.39s-2.53-1-2.53-2.39c0-1.33,1.03-2.36,2.53-2.36
	S82.79,104.92,82.79,106.25z M80.26,96.32c1.18,0,2.09,0.8,2.09,1.95c0,1.15-0.88,1.95-2.09,1.95c-1.21,0-2.09-0.8-2.09-1.95
	C78.16,97.11,79.08,96.32,80.26,96.32z M107.98,102.53c0-5.57-3.18-10.52-8.96-10.52c-5.81,0-8.99,4.95-8.99,10.52
	c0,5.57,3.18,10.52,8.99,10.52C104.8,113.05,107.98,108.1,107.98,102.53z M102.5,102.53c0,2.74-1.06,5.42-3.48,5.42
	c-2.45,0-3.51-2.68-3.51-5.42s1.06-5.42,3.51-5.42C101.44,97.11,102.5,99.79,102.5,102.53z M120.14,97.11c0-2.8-2.27-4.98-5.19-4.98
	s-5.19,2.18-5.19,4.98c0,2.8,2.27,4.98,5.19,4.98S120.14,99.91,120.14,97.11z M116.67,97.11c0,1.03-0.74,1.74-1.71,1.74
	s-1.71-0.71-1.71-1.74s0.74-1.74,1.71-1.74S116.67,96.08,116.67,97.11z M131.19,92.4h-4.51l-15.03,20.25h4.51L131.19,92.4z
	 M122.71,107.93c0,2.8,2.27,4.98,5.19,4.98c2.92,0,5.19-2.18,5.19-4.98s-2.27-4.98-5.19-4.98
	C124.98,102.95,122.71,105.13,122.71,107.93z M126.18,107.93c0-1.03,0.74-1.74,1.71-1.74c0.97,0,1.71,0.71,1.71,1.74
	c0,1.03-0.74,1.74-1.71,1.74C126.92,109.67,126.18,108.96,126.18,107.93z"/>
</svg>
