<?xml version="1.0" encoding="UTF-8"?>
<svg id="Layer_1" data-name="Layer 1" xmlns="http://www.w3.org/2000/svg" viewBox="0 0 204 204">
  <defs>
    <style>
      .cls-1 {
        fill: #fff;
      }

      .cls-2 {
        fill: #1ec6ba;
      }
    </style>
  </defs>
  <path class="cls-2" d="M165.17,78.23c4.25-1.59,9.03,.56,10.18,4.95,4.32,16.55,3.2,34.14-3.32,50.11-7.56,18.52-21.82,33.51-39.95,41.98-18.12,8.47-38.77,9.79-57.83,3.71-19.06-6.08-35.12-19.13-44.98-36.53-9.86-17.4-12.81-37.88-8.24-57.36,4.57-19.47,16.31-36.51,32.89-47.71,16.57-11.2,36.76-15.74,56.54-12.71,17.05,2.61,32.72,10.68,44.7,22.89,3.18,3.24,2.57,8.44-.98,11.27-3.55,2.83-8.69,2.2-11.95-.96-9.34-9.02-21.29-14.98-34.25-16.96-15.69-2.4-31.7,1.2-44.85,10.08-13.15,8.88-22.46,22.4-26.09,37.85-3.62,15.45-1.29,31.7,6.53,45.5,7.83,13.8,20.57,24.15,35.68,28.98,15.12,4.83,31.5,3.77,45.87-2.94,14.38-6.72,25.69-18.61,31.69-33.3,4.96-12.14,5.98-25.46,3.04-38.1-1.03-4.42,1.07-9.15,5.32-10.74Z"/>
  <path class="cls-1" d="M74.01,101.03c0,3.62,2.53,6.51,6.2,6.51,.48,0,.81-.06,1.01-.17l-4.24,6h5.95l4.32-6.87c1.09-1.77,1.8-3.79,1.8-5.61,0-4.1-3.17-7.15-7.52-7.15s-7.52,3.09-7.52,7.29Zm4.94-.2c0-1.43,1.15-2.53,2.61-2.53s2.58,1.12,2.58,2.55-1.12,2.53-2.58,2.53-2.61-1.12-2.61-2.55Zm17.13,4.69c.42-.67,1.23-1.21,2.27-1.21,1.43,0,2.47,1.01,2.47,2.38s-1.04,2.47-2.47,2.47-2.3-.98-2.38-1.85h-4.94c.08,3.9,2.95,6.45,7.41,6.45,4.18,0,7.38-3.11,7.38-7.32,0-3.48-2.5-6.37-6.17-6.37-1.21,0-2.27,.31-3.2,.9l.36-2.47h7.66v-4.38h-11.53l-1.43,10.44,4.57,.95Zm21.01-6.93c0-2.67-2.16-4.74-4.94-4.74s-4.94,2.08-4.94,4.74,2.16,4.74,4.94,4.74,4.94-2.08,4.94-4.74Zm-3.31,0c0,.98-.7,1.66-1.63,1.66s-1.63-.67-1.63-1.66,.7-1.66,1.63-1.66,1.63,.67,1.63,1.66Zm13.83-4.49h-4.29l-14.31,19.28h4.29l14.31-19.28Zm-8.08,14.79c0,2.67,2.16,4.74,4.94,4.74s4.94-2.08,4.94-4.74-2.16-4.74-4.94-4.74-4.94,2.08-4.94,4.74Zm3.31,0c0-.98,.7-1.66,1.63-1.66s1.63,.67,1.63,1.66-.7,1.66-1.63,1.66-1.63-.67-1.63-1.66Z"/>
</svg>