<svg xmlns="http://www.w3.org/2000/svg" xmlns:xlink="http://www.w3.org/1999/xlink" width="1000" zoomAndPan="magnify" viewBox="0 0 750 374.999991" height="500" preserveAspectRatio="xMidYMid meet" version="1.0"><defs><g/></defs><g fill="#cb6ce6" fill-opacity="0.4"><g transform="translate(4.833531, 213.233585)"><g><path d="M 30.757812 -73.472656 C 29.707031 -73.472656 1.492188 -74.964844 1.492188 -50.535156 C 1.492188 -35.242188 12.566406 -26.453125 27.421875 -26.453125 L 32.691406 -26.453125 C 35.59375 -26.453125 37.964844 -24.695312 37.964844 -21.796875 C 37.964844 -18.984375 35.59375 -16.960938 33.132812 -16.960938 C 31.726562 -16.960938 29.355469 -17.402344 28.476562 -20.917969 C 28.210938 -21.621094 27.859375 -22.058594 26.542969 -21.796875 L 2.988281 -18.984375 C 1.667969 -18.71875 1.40625 -17.839844 2.109375 -16.523438 C 5.710938 -6.503906 12.128906 3.164062 34.097656 3.164062 C 45.171875 3.164062 59.148438 -2.898438 59.148438 -22.234375 C 59.148438 -46.050781 38.140625 -44.292969 30.757812 -44.292969 C 28.476562 -44.292969 24.082031 -44.820312 24.082031 -49.039062 C 24.082031 -52.46875 26.980469 -53.960938 28.914062 -53.960938 C 30.320312 -53.960938 32.691406 -52.90625 33.570312 -50.535156 C 33.921875 -49.480469 34.714844 -49.039062 35.59375 -49.039062 L 57.125 -52.027344 C 58.09375 -52.117188 58.796875 -53.082031 58.53125 -54.402344 C 57.566406 -59.148438 53.347656 -73.472656 30.757812 -73.472656 Z M 30.757812 -73.472656 "/></g></g></g><g fill="#cb6ce6" fill-opacity="0.4"><g transform="translate(65.46991, 213.233585)"><g><path d="M 52.46875 -70.570312 L 41.394531 -70.570312 C 37.789062 -70.570312 34.890625 -67.671875 34.890625 -64.066406 L 34.890625 -48.425781 C 34.890625 -47.898438 34.449219 -47.371094 34.011719 -47.28125 L 27.949219 -47.28125 C 27.507812 -47.371094 27.070312 -47.898438 26.980469 -48.335938 L 26.980469 -64.066406 C 26.980469 -67.671875 24.082031 -70.570312 20.476562 -70.570312 L 9.402344 -70.570312 C 5.800781 -70.570312 2.898438 -67.671875 2.898438 -64.066406 L 2.898438 -6.414062 C 2.898438 -2.722656 5.800781 0.175781 9.402344 0.175781 L 20.476562 0.175781 C 24.082031 0.175781 26.980469 -2.722656 26.980469 -6.414062 L 26.980469 -21.972656 C 27.070312 -22.585938 27.332031 -22.9375 27.949219 -23.113281 L 34.011719 -23.113281 C 34.449219 -22.9375 34.890625 -22.585938 34.890625 -21.972656 L 34.890625 -6.414062 C 34.890625 -2.722656 37.789062 0.175781 41.394531 0.175781 L 52.46875 0.175781 C 56.160156 0.175781 59.058594 -2.722656 59.058594 -6.414062 L 59.058594 -64.066406 C 59.058594 -67.671875 56.160156 -70.570312 52.46875 -70.570312 Z M 52.46875 -70.570312 "/></g></g></g><g fill="#cb6ce6" fill-opacity="0.4"><g transform="translate(127.424476, 213.233585)"><g><path d="M 67.054688 -7.382812 L 52.117188 -64.242188 C 51.851562 -65.296875 51.589844 -66.878906 50.359375 -68.285156 C 49.039062 -69.605469 47.371094 -69.957031 46.140625 -69.957031 L 23.113281 -69.957031 C 21.796875 -69.957031 20.566406 -69.515625 19.6875 -68.8125 C 18.808594 -68.199219 17.839844 -67.144531 17.488281 -65.5625 L 1.667969 -7.46875 C 0.964844 -4.65625 2.285156 -1.667969 4.921875 -0.527344 C 5.625 -0.175781 6.328125 -0.0859375 7.207031 -0.0859375 L 19.160156 -0.0859375 C 22.410156 -0.0859375 23.730469 -2.109375 25.046875 -5.449219 L 27.597656 -12.304688 L 41.042969 -12.304688 L 43.679688 -5.449219 C 44.996094 -2.109375 46.316406 0 49.566406 0 L 61.519531 0 C 62.484375 0 63.453125 -0.261719 64.15625 -0.703125 C 66.527344 -1.933594 67.671875 -4.746094 67.054688 -7.382812 Z M 38.492188 -32.605469 L 30.320312 -32.605469 C 29.441406 -32.605469 28.738281 -33.394531 29.179688 -34.273438 L 31.460938 -40.25 L 33.21875 -44.820312 C 33.570312 -45.964844 35.152344 -45.964844 35.503906 -44.820312 L 37.351562 -40.25 L 39.636719 -34.273438 C 39.898438 -33.394531 39.285156 -32.605469 38.492188 -32.605469 Z M 38.492188 -32.605469 "/></g></g></g><g fill="#cb6ce6" fill-opacity="0.4"><g transform="translate(196.145716, 213.233585)"><g><path d="M 54.226562 -70.21875 L 43.152344 -70.21875 C 39.722656 -70.21875 36.734375 -67.40625 36.734375 -63.890625 L 36.734375 -43.238281 L 26.453125 -66.089844 C 25.488281 -68.550781 23.113281 -70.21875 20.390625 -70.21875 L 9.316406 -70.21875 C 5.800781 -70.21875 2.898438 -67.40625 2.898438 -63.890625 L 2.898438 -5.183594 C 2.898438 -1.667969 5.800781 1.140625 9.316406 1.140625 L 20.390625 1.140625 C 23.992188 1.140625 26.804688 -1.667969 26.804688 -5.183594 L 26.804688 -24.960938 L 37.085938 -3.164062 C 38.140625 -0.703125 40.339844 1.140625 43.152344 1.140625 L 54.226562 1.140625 C 57.828125 1.140625 60.640625 -1.667969 60.640625 -5.183594 L 60.640625 -63.890625 C 60.640625 -67.40625 57.828125 -70.21875 54.226562 -70.21875 Z M 54.226562 -70.21875 "/></g></g></g><g fill="#cb6ce6" fill-opacity="0.4"><g transform="translate(259.682085, 213.233585)"><g><path d="M 9.140625 0.0859375 L 20.039062 0.0859375 C 23.730469 0.0859375 26.367188 -2.898438 26.367188 -6.238281 L 26.367188 -63.980469 C 26.367188 -67.671875 23.730469 -70.308594 20.039062 -70.308594 L 9.140625 -70.308594 C 5.710938 -70.308594 2.898438 -67.671875 2.898438 -63.980469 L 2.898438 -6.238281 C 2.898438 -2.898438 5.710938 0.0859375 9.140625 0.0859375 Z M 9.140625 0.0859375 "/></g></g></g><g fill="#cb6ce6" fill-opacity="0.4"><g transform="translate(288.945724, 213.233585)"><g><path d="M 69.691406 -63.277344 C 70.21875 -63.714844 70.746094 -64.859375 70.746094 -66 C 70.746094 -68.726562 68.636719 -70.394531 66.351562 -70.394531 L 50.445312 -70.394531 C 49.390625 -70.394531 48.511719 -69.867188 47.722656 -68.726562 L 36.121094 -52.730469 L 25.136719 -68.726562 C 24.257812 -70.132812 22.851562 -70.394531 21.882812 -70.394531 L 5.886719 -70.394531 C 3.601562 -70.394531 1.492188 -68.726562 1.492188 -66 C 1.492188 -64.859375 2.019531 -63.714844 2.636719 -63.277344 L 23.464844 -33.484375 L 23.464844 -5.007812 C 23.464844 -2.109375 26.277344 0 29.003906 0 L 43.238281 0 C 45.964844 0 48.863281 -2.109375 48.863281 -5.007812 L 48.863281 -33.484375 Z M 69.691406 -63.277344 "/></g></g></g><g fill="#cb6ce6" fill-opacity="0.4"><g transform="translate(361.182109, 213.233585)"><g><path d="M 67.054688 -7.382812 L 52.117188 -64.242188 C 51.851562 -65.296875 51.589844 -66.878906 50.359375 -68.285156 C 49.039062 -69.605469 47.371094 -69.957031 46.140625 -69.957031 L 23.113281 -69.957031 C 21.796875 -69.957031 20.566406 -69.515625 19.6875 -68.8125 C 18.808594 -68.199219 17.839844 -67.144531 17.488281 -65.5625 L 1.667969 -7.46875 C 0.964844 -4.65625 2.285156 -1.667969 4.921875 -0.527344 C 5.625 -0.175781 6.328125 -0.0859375 7.207031 -0.0859375 L 19.160156 -0.0859375 C 22.410156 -0.0859375 23.730469 -2.109375 25.046875 -5.449219 L 27.597656 -12.304688 L 41.042969 -12.304688 L 43.679688 -5.449219 C 44.996094 -2.109375 46.316406 0 49.566406 0 L 61.519531 0 C 62.484375 0 63.453125 -0.261719 64.15625 -0.703125 C 66.527344 -1.933594 67.671875 -4.746094 67.054688 -7.382812 Z M 38.492188 -32.605469 L 30.320312 -32.605469 C 29.441406 -32.605469 28.738281 -33.394531 29.179688 -34.273438 L 31.460938 -40.25 L 33.21875 -44.820312 C 33.570312 -45.964844 35.152344 -45.964844 35.503906 -44.820312 L 37.351562 -40.25 L 39.636719 -34.273438 C 39.898438 -33.394531 39.285156 -32.605469 38.492188 -32.605469 Z M 38.492188 -32.605469 "/></g></g></g><g fill="#cb6ce6" fill-opacity="0.4"><g transform="translate(429.903327, 213.233585)"><g/></g></g><g fill="#cb6ce6" fill-opacity="0.4"><g transform="translate(459.782109, 213.233585)"><g><path d="M 37.261719 -27.859375 C 36.472656 -27.859375 35.855469 -27.246094 35.855469 -26.453125 C 35.855469 -23.464844 33.132812 -20.828125 30.058594 -20.828125 C 26.804688 -20.828125 24.257812 -23.464844 24.257812 -26.453125 L 24.257812 -43.855469 C 24.257812 -48.074219 28.738281 -51.414062 33.484375 -48.6875 C 34.800781 -47.898438 35.855469 -45.964844 35.855469 -44.382812 L 35.855469 -43.941406 C 35.855469 -43.238281 36.472656 -42.535156 37.261719 -42.535156 L 57.300781 -42.535156 C 57.917969 -42.535156 58.53125 -43.152344 58.53125 -43.855469 L 58.53125 -45.4375 C 58.53125 -59.851562 44.734375 -71.449219 30.058594 -71.449219 C 15.644531 -71.449219 1.492188 -59.851562 1.492188 -45.4375 L 1.492188 -25.574219 C 1.492188 -10.632812 15.644531 1.054688 30.058594 1.054688 C 44.734375 1.054688 58.53125 -10.632812 58.53125 -25.574219 L 58.53125 -26.628906 C 58.53125 -27.246094 57.917969 -27.859375 57.300781 -27.859375 Z M 37.261719 -27.859375 "/></g></g></g><g fill="#cb6ce6" fill-opacity="0.4"><g transform="translate(519.803345, 213.233585)"><g><path d="M 30.144531 -71.363281 C 15.730469 -71.363281 1.492188 -59.761719 1.492188 -45.261719 L 1.492188 -25.222656 C 1.492188 -10.195312 15.730469 1.492188 30.144531 1.492188 C 44.910156 1.492188 58.796875 -10.195312 58.796875 -25.222656 L 58.796875 -45.261719 C 58.796875 -59.761719 44.910156 -71.363281 30.144531 -71.363281 Z M 36.03125 -26.101562 C 36.03125 -23.113281 33.308594 -20.476562 30.144531 -20.476562 C 26.894531 -20.476562 24.34375 -23.113281 24.34375 -26.101562 L 24.34375 -43.679688 C 24.34375 -46.84375 26.894531 -49.480469 30.144531 -49.480469 C 33.308594 -49.480469 36.03125 -46.84375 36.03125 -43.679688 Z M 36.03125 -26.101562 "/></g></g></g><g fill="#cb6ce6" fill-opacity="0.4"><g transform="translate(580.088207, 213.233585)"><g><path d="M 32.867188 -70.21875 L 9.226562 -70.21875 C 5.535156 -70.21875 2.898438 -67.144531 2.898438 -63.890625 L 2.898438 -6.679688 C 2.898438 -3.515625 5.535156 -0.261719 9.226562 -0.261719 L 32.867188 -0.261719 C 46.667969 -0.261719 57.214844 -11.425781 57.214844 -24.695312 L 57.214844 -45.875 C 57.214844 -59.148438 46.667969 -70.21875 32.867188 -70.21875 Z M 35.769531 -33.132812 C 35.769531 -29.441406 33.042969 -26.894531 29.441406 -26.894531 L 25.222656 -26.894531 C 24.609375 -26.894531 23.992188 -27.332031 23.992188 -28.386719 L 23.992188 -42.097656 C 23.992188 -43.238281 24.609375 -43.765625 25.222656 -43.765625 L 29.441406 -43.765625 C 33.042969 -43.765625 35.769531 -41.128906 35.769531 -37.351562 Z M 35.769531 -33.132812 "/></g></g></g><g fill="#cb6ce6" fill-opacity="0.4"><g transform="translate(639.494301, 213.233585)"><g><path d="M 27.421875 -51.238281 L 45.261719 -51.238281 C 47.808594 -51.238281 49.917969 -53.347656 49.917969 -55.808594 L 49.917969 -65.648438 C 49.917969 -68.199219 47.808594 -70.21875 45.261719 -70.21875 L 9.316406 -70.21875 C 5.710938 -70.21875 2.898438 -67.40625 2.898438 -65.386719 L 2.898438 -8.171875 C 2.898438 -2.988281 5.710938 -0.175781 9.316406 -0.175781 L 45.261719 -0.175781 C 47.808594 -0.175781 49.917969 -2.195312 49.917969 -4.746094 L 49.917969 -14.589844 C 49.917969 -17.136719 47.808594 -19.335938 45.261719 -19.335938 L 27.421875 -19.335938 C 27.070312 -19.335938 26.804688 -19.597656 26.804688 -19.949219 L 26.804688 -25.574219 C 26.804688 -25.925781 27.070312 -26.191406 27.421875 -26.191406 L 40.339844 -26.191406 C 42.625 -26.191406 44.558594 -28.035156 44.558594 -30.410156 L 44.558594 -39.988281 C 44.558594 -42.273438 42.625 -44.207031 40.339844 -44.207031 L 27.421875 -44.207031 C 27.070312 -44.207031 26.804688 -44.46875 26.804688 -44.734375 L 26.804688 -50.535156 C 26.804688 -50.796875 27.070312 -51.238281 27.421875 -51.238281 Z M 27.421875 -51.238281 "/></g></g></g><g fill="#cb6ce6" fill-opacity="0.4"><g transform="translate(692.309468, 213.233585)"><g><path d="M 30.757812 -73.472656 C 29.707031 -73.472656 1.492188 -74.964844 1.492188 -50.535156 C 1.492188 -35.242188 12.566406 -26.453125 27.421875 -26.453125 L 32.691406 -26.453125 C 35.59375 -26.453125 37.964844 -24.695312 37.964844 -21.796875 C 37.964844 -18.984375 35.59375 -16.960938 33.132812 -16.960938 C 31.726562 -16.960938 29.355469 -17.402344 28.476562 -20.917969 C 28.210938 -21.621094 27.859375 -22.058594 26.542969 -21.796875 L 2.988281 -18.984375 C 1.667969 -18.71875 1.40625 -17.839844 2.109375 -16.523438 C 5.710938 -6.503906 12.128906 3.164062 34.097656 3.164062 C 45.171875 3.164062 59.148438 -2.898438 59.148438 -22.234375 C 59.148438 -46.050781 38.140625 -44.292969 30.757812 -44.292969 C 28.476562 -44.292969 24.082031 -44.820312 24.082031 -49.039062 C 24.082031 -52.46875 26.980469 -53.960938 28.914062 -53.960938 C 30.320312 -53.960938 32.691406 -52.90625 33.570312 -50.535156 C 33.921875 -49.480469 34.714844 -49.039062 35.59375 -49.039062 L 57.125 -52.027344 C 58.09375 -52.117188 58.796875 -53.082031 58.53125 -54.402344 C 57.566406 -59.148438 53.347656 -73.472656 30.757812 -73.472656 Z M 30.757812 -73.472656 "/></g></g></g><g fill="#ffffff" fill-opacity="1"><g transform="translate(0.949228, 209.349289)"><g><path d="M 30.757812 -73.472656 C 29.707031 -73.472656 1.492188 -74.964844 1.492188 -50.535156 C 1.492188 -35.242188 12.566406 -26.453125 27.421875 -26.453125 L 32.691406 -26.453125 C 35.59375 -26.453125 37.964844 -24.695312 37.964844 -21.796875 C 37.964844 -18.984375 35.59375 -16.960938 33.132812 -16.960938 C 31.726562 -16.960938 29.355469 -17.402344 28.476562 -20.917969 C 28.210938 -21.621094 27.859375 -22.058594 26.542969 -21.796875 L 2.988281 -18.984375 C 1.667969 -18.71875 1.40625 -17.839844 2.109375 -16.523438 C 5.710938 -6.503906 12.128906 3.164062 34.097656 3.164062 C 45.171875 3.164062 59.148438 -2.898438 59.148438 -22.234375 C 59.148438 -46.050781 38.140625 -44.292969 30.757812 -44.292969 C 28.476562 -44.292969 24.082031 -44.820312 24.082031 -49.039062 C 24.082031 -52.46875 26.980469 -53.960938 28.914062 -53.960938 C 30.320312 -53.960938 32.691406 -52.90625 33.570312 -50.535156 C 33.921875 -49.480469 34.714844 -49.039062 35.59375 -49.039062 L 57.125 -52.027344 C 58.09375 -52.117188 58.796875 -53.082031 58.53125 -54.402344 C 57.566406 -59.148438 53.347656 -73.472656 30.757812 -73.472656 Z M 30.757812 -73.472656 "/></g></g></g><g fill="#ffffff" fill-opacity="1"><g transform="translate(61.585607, 209.349289)"><g><path d="M 52.46875 -70.570312 L 41.394531 -70.570312 C 37.789062 -70.570312 34.890625 -67.671875 34.890625 -64.066406 L 34.890625 -48.425781 C 34.890625 -47.898438 34.449219 -47.371094 34.011719 -47.28125 L 27.949219 -47.28125 C 27.507812 -47.371094 27.070312 -47.898438 26.980469 -48.335938 L 26.980469 -64.066406 C 26.980469 -67.671875 24.082031 -70.570312 20.476562 -70.570312 L 9.402344 -70.570312 C 5.800781 -70.570312 2.898438 -67.671875 2.898438 -64.066406 L 2.898438 -6.414062 C 2.898438 -2.722656 5.800781 0.175781 9.402344 0.175781 L 20.476562 0.175781 C 24.082031 0.175781 26.980469 -2.722656 26.980469 -6.414062 L 26.980469 -21.972656 C 27.070312 -22.585938 27.332031 -22.9375 27.949219 -23.113281 L 34.011719 -23.113281 C 34.449219 -22.9375 34.890625 -22.585938 34.890625 -21.972656 L 34.890625 -6.414062 C 34.890625 -2.722656 37.789062 0.175781 41.394531 0.175781 L 52.46875 0.175781 C 56.160156 0.175781 59.058594 -2.722656 59.058594 -6.414062 L 59.058594 -64.066406 C 59.058594 -67.671875 56.160156 -70.570312 52.46875 -70.570312 Z M 52.46875 -70.570312 "/></g></g></g><g fill="#ffffff" fill-opacity="1"><g transform="translate(123.540173, 209.349289)"><g><path d="M 67.054688 -7.382812 L 52.117188 -64.242188 C 51.851562 -65.296875 51.589844 -66.878906 50.359375 -68.285156 C 49.039062 -69.605469 47.371094 -69.957031 46.140625 -69.957031 L 23.113281 -69.957031 C 21.796875 -69.957031 20.566406 -69.515625 19.6875 -68.8125 C 18.808594 -68.199219 17.839844 -67.144531 17.488281 -65.5625 L 1.667969 -7.46875 C 0.964844 -4.65625 2.285156 -1.667969 4.921875 -0.527344 C 5.625 -0.175781 6.328125 -0.0859375 7.207031 -0.0859375 L 19.160156 -0.0859375 C 22.410156 -0.0859375 23.730469 -2.109375 25.046875 -5.449219 L 27.597656 -12.304688 L 41.042969 -12.304688 L 43.679688 -5.449219 C 44.996094 -2.109375 46.316406 0 49.566406 0 L 61.519531 0 C 62.484375 0 63.453125 -0.261719 64.15625 -0.703125 C 66.527344 -1.933594 67.671875 -4.746094 67.054688 -7.382812 Z M 38.492188 -32.605469 L 30.320312 -32.605469 C 29.441406 -32.605469 28.738281 -33.394531 29.179688 -34.273438 L 31.460938 -40.25 L 33.21875 -44.820312 C 33.570312 -45.964844 35.152344 -45.964844 35.503906 -44.820312 L 37.351562 -40.25 L 39.636719 -34.273438 C 39.898438 -33.394531 39.285156 -32.605469 38.492188 -32.605469 Z M 38.492188 -32.605469 "/></g></g></g><g fill="#ffffff" fill-opacity="1"><g transform="translate(192.261413, 209.349289)"><g><path d="M 54.226562 -70.21875 L 43.152344 -70.21875 C 39.722656 -70.21875 36.734375 -67.40625 36.734375 -63.890625 L 36.734375 -43.238281 L 26.453125 -66.089844 C 25.488281 -68.550781 23.113281 -70.21875 20.390625 -70.21875 L 9.316406 -70.21875 C 5.800781 -70.21875 2.898438 -67.40625 2.898438 -63.890625 L 2.898438 -5.183594 C 2.898438 -1.667969 5.800781 1.140625 9.316406 1.140625 L 20.390625 1.140625 C 23.992188 1.140625 26.804688 -1.667969 26.804688 -5.183594 L 26.804688 -24.960938 L 37.085938 -3.164062 C 38.140625 -0.703125 40.339844 1.140625 43.152344 1.140625 L 54.226562 1.140625 C 57.828125 1.140625 60.640625 -1.667969 60.640625 -5.183594 L 60.640625 -63.890625 C 60.640625 -67.40625 57.828125 -70.21875 54.226562 -70.21875 Z M 54.226562 -70.21875 "/></g></g></g><g fill="#ffffff" fill-opacity="1"><g transform="translate(255.797782, 209.349289)"><g><path d="M 9.140625 0.0859375 L 20.039062 0.0859375 C 23.730469 0.0859375 26.367188 -2.898438 26.367188 -6.238281 L 26.367188 -63.980469 C 26.367188 -67.671875 23.730469 -70.308594 20.039062 -70.308594 L 9.140625 -70.308594 C 5.710938 -70.308594 2.898438 -67.671875 2.898438 -63.980469 L 2.898438 -6.238281 C 2.898438 -2.898438 5.710938 0.0859375 9.140625 0.0859375 Z M 9.140625 0.0859375 "/></g></g></g><g fill="#ffffff" fill-opacity="1"><g transform="translate(285.061421, 209.349289)"><g><path d="M 69.691406 -63.277344 C 70.21875 -63.714844 70.746094 -64.859375 70.746094 -66 C 70.746094 -68.726562 68.636719 -70.394531 66.351562 -70.394531 L 50.445312 -70.394531 C 49.390625 -70.394531 48.511719 -69.867188 47.722656 -68.726562 L 36.121094 -52.730469 L 25.136719 -68.726562 C 24.257812 -70.132812 22.851562 -70.394531 21.882812 -70.394531 L 5.886719 -70.394531 C 3.601562 -70.394531 1.492188 -68.726562 1.492188 -66 C 1.492188 -64.859375 2.019531 -63.714844 2.636719 -63.277344 L 23.464844 -33.484375 L 23.464844 -5.007812 C 23.464844 -2.109375 26.277344 0 29.003906 0 L 43.238281 0 C 45.964844 0 48.863281 -2.109375 48.863281 -5.007812 L 48.863281 -33.484375 Z M 69.691406 -63.277344 "/></g></g></g><g fill="#ffffff" fill-opacity="1"><g transform="translate(357.297806, 209.349289)"><g><path d="M 67.054688 -7.382812 L 52.117188 -64.242188 C 51.851562 -65.296875 51.589844 -66.878906 50.359375 -68.285156 C 49.039062 -69.605469 47.371094 -69.957031 46.140625 -69.957031 L 23.113281 -69.957031 C 21.796875 -69.957031 20.566406 -69.515625 19.6875 -68.8125 C 18.808594 -68.199219 17.839844 -67.144531 17.488281 -65.5625 L 1.667969 -7.46875 C 0.964844 -4.65625 2.285156 -1.667969 4.921875 -0.527344 C 5.625 -0.175781 6.328125 -0.0859375 7.207031 -0.0859375 L 19.160156 -0.0859375 C 22.410156 -0.0859375 23.730469 -2.109375 25.046875 -5.449219 L 27.597656 -12.304688 L 41.042969 -12.304688 L 43.679688 -5.449219 C 44.996094 -2.109375 46.316406 0 49.566406 0 L 61.519531 0 C 62.484375 0 63.453125 -0.261719 64.15625 -0.703125 C 66.527344 -1.933594 67.671875 -4.746094 67.054688 -7.382812 Z M 38.492188 -32.605469 L 30.320312 -32.605469 C 29.441406 -32.605469 28.738281 -33.394531 29.179688 -34.273438 L 31.460938 -40.25 L 33.21875 -44.820312 C 33.570312 -45.964844 35.152344 -45.964844 35.503906 -44.820312 L 37.351562 -40.25 L 39.636719 -34.273438 C 39.898438 -33.394531 39.285156 -32.605469 38.492188 -32.605469 Z M 38.492188 -32.605469 "/></g></g></g><g fill="#ffffff" fill-opacity="1"><g transform="translate(426.019024, 209.349289)"><g/></g></g><g fill="#ffffff" fill-opacity="1"><g transform="translate(455.897806, 209.349289)"><g><path d="M 37.261719 -27.859375 C 36.472656 -27.859375 35.855469 -27.246094 35.855469 -26.453125 C 35.855469 -23.464844 33.132812 -20.828125 30.058594 -20.828125 C 26.804688 -20.828125 24.257812 -23.464844 24.257812 -26.453125 L 24.257812 -43.855469 C 24.257812 -48.074219 28.738281 -51.414062 33.484375 -48.6875 C 34.800781 -47.898438 35.855469 -45.964844 35.855469 -44.382812 L 35.855469 -43.941406 C 35.855469 -43.238281 36.472656 -42.535156 37.261719 -42.535156 L 57.300781 -42.535156 C 57.917969 -42.535156 58.53125 -43.152344 58.53125 -43.855469 L 58.53125 -45.4375 C 58.53125 -59.851562 44.734375 -71.449219 30.058594 -71.449219 C 15.644531 -71.449219 1.492188 -59.851562 1.492188 -45.4375 L 1.492188 -25.574219 C 1.492188 -10.632812 15.644531 1.054688 30.058594 1.054688 C 44.734375 1.054688 58.53125 -10.632812 58.53125 -25.574219 L 58.53125 -26.628906 C 58.53125 -27.246094 57.917969 -27.859375 57.300781 -27.859375 Z M 37.261719 -27.859375 "/></g></g></g><g fill="#ffffff" fill-opacity="1"><g transform="translate(515.919042, 209.349289)"><g><path d="M 30.144531 -71.363281 C 15.730469 -71.363281 1.492188 -59.761719 1.492188 -45.261719 L 1.492188 -25.222656 C 1.492188 -10.195312 15.730469 1.492188 30.144531 1.492188 C 44.910156 1.492188 58.796875 -10.195312 58.796875 -25.222656 L 58.796875 -45.261719 C 58.796875 -59.761719 44.910156 -71.363281 30.144531 -71.363281 Z M 36.03125 -26.101562 C 36.03125 -23.113281 33.308594 -20.476562 30.144531 -20.476562 C 26.894531 -20.476562 24.34375 -23.113281 24.34375 -26.101562 L 24.34375 -43.679688 C 24.34375 -46.84375 26.894531 -49.480469 30.144531 -49.480469 C 33.308594 -49.480469 36.03125 -46.84375 36.03125 -43.679688 Z M 36.03125 -26.101562 "/></g></g></g><g fill="#ffffff" fill-opacity="1"><g transform="translate(576.203904, 209.349289)"><g><path d="M 32.867188 -70.21875 L 9.226562 -70.21875 C 5.535156 -70.21875 2.898438 -67.144531 2.898438 -63.890625 L 2.898438 -6.679688 C 2.898438 -3.515625 5.535156 -0.261719 9.226562 -0.261719 L 32.867188 -0.261719 C 46.667969 -0.261719 57.214844 -11.425781 57.214844 -24.695312 L 57.214844 -45.875 C 57.214844 -59.148438 46.667969 -70.21875 32.867188 -70.21875 Z M 35.769531 -33.132812 C 35.769531 -29.441406 33.042969 -26.894531 29.441406 -26.894531 L 25.222656 -26.894531 C 24.609375 -26.894531 23.992188 -27.332031 23.992188 -28.386719 L 23.992188 -42.097656 C 23.992188 -43.238281 24.609375 -43.765625 25.222656 -43.765625 L 29.441406 -43.765625 C 33.042969 -43.765625 35.769531 -41.128906 35.769531 -37.351562 Z M 35.769531 -33.132812 "/></g></g></g><g fill="#ffffff" fill-opacity="1"><g transform="translate(635.609998, 209.349289)"><g><path d="M 27.421875 -51.238281 L 45.261719 -51.238281 C 47.808594 -51.238281 49.917969 -53.347656 49.917969 -55.808594 L 49.917969 -65.648438 C 49.917969 -68.199219 47.808594 -70.21875 45.261719 -70.21875 L 9.316406 -70.21875 C 5.710938 -70.21875 2.898438 -67.40625 2.898438 -65.386719 L 2.898438 -8.171875 C 2.898438 -2.988281 5.710938 -0.175781 9.316406 -0.175781 L 45.261719 -0.175781 C 47.808594 -0.175781 49.917969 -2.195312 49.917969 -4.746094 L 49.917969 -14.589844 C 49.917969 -17.136719 47.808594 -19.335938 45.261719 -19.335938 L 27.421875 -19.335938 C 27.070312 -19.335938 26.804688 -19.597656 26.804688 -19.949219 L 26.804688 -25.574219 C 26.804688 -25.925781 27.070312 -26.191406 27.421875 -26.191406 L 40.339844 -26.191406 C 42.625 -26.191406 44.558594 -28.035156 44.558594 -30.410156 L 44.558594 -39.988281 C 44.558594 -42.273438 42.625 -44.207031 40.339844 -44.207031 L 27.421875 -44.207031 C 27.070312 -44.207031 26.804688 -44.46875 26.804688 -44.734375 L 26.804688 -50.535156 C 26.804688 -50.796875 27.070312 -51.238281 27.421875 -51.238281 Z M 27.421875 -51.238281 "/></g></g></g><g fill="#ffffff" fill-opacity="1"><g transform="translate(688.425165, 209.349289)"><g><path d="M 30.757812 -73.472656 C 29.707031 -73.472656 1.492188 -74.964844 1.492188 -50.535156 C 1.492188 -35.242188 12.566406 -26.453125 27.421875 -26.453125 L 32.691406 -26.453125 C 35.59375 -26.453125 37.964844 -24.695312 37.964844 -21.796875 C 37.964844 -18.984375 35.59375 -16.960938 33.132812 -16.960938 C 31.726562 -16.960938 29.355469 -17.402344 28.476562 -20.917969 C 28.210938 -21.621094 27.859375 -22.058594 26.542969 -21.796875 L 2.988281 -18.984375 C 1.667969 -18.71875 1.40625 -17.839844 2.109375 -16.523438 C 5.710938 -6.503906 12.128906 3.164062 34.097656 3.164062 C 45.171875 3.164062 59.148438 -2.898438 59.148438 -22.234375 C 59.148438 -46.050781 38.140625 -44.292969 30.757812 -44.292969 C 28.476562 -44.292969 24.082031 -44.820312 24.082031 -49.039062 C 24.082031 -52.46875 26.980469 -53.960938 28.914062 -53.960938 C 30.320312 -53.960938 32.691406 -52.90625 33.570312 -50.535156 C 33.921875 -49.480469 34.714844 -49.039062 35.59375 -49.039062 L 57.125 -52.027344 C 58.09375 -52.117188 58.796875 -53.082031 58.53125 -54.402344 C 57.566406 -59.148438 53.347656 -73.472656 30.757812 -73.472656 Z M 30.757812 -73.472656 "/></g></g></g></svg>